<svg width="216" height="31" viewBox="0 0 216 31" fill="none" xmlns="http://www.w3.org/2000/svg">
<path d="M39.1749 22.4757C37.8019 22.4757 36.6393 22.2368 35.6873 21.7558C34.7353 21.2748 34.0095 20.5895 33.5068 19.6968C33.004 18.804 32.7244 17.7289 32.6647 16.4746C32.649 15.8679 32.6427 15.2203 32.6427 14.5256C32.6427 13.8309 32.649 13.1676 32.6647 12.5326C32.7244 11.2909 33.0072 10.222 33.5162 9.31984C34.0252 8.42078 34.7573 7.72919 35.7093 7.24823C36.6613 6.76726 37.8176 6.52835 39.1749 6.52835C40.1772 6.52835 41.079 6.66038 41.8771 6.92758C42.6751 7.19479 43.3538 7.55944 43.9131 8.02469C44.4724 8.48994 44.9091 9.03378 45.2202 9.65306C45.5312 10.2723 45.6915 10.9451 45.7072 11.6681C45.7229 11.8001 45.682 11.9101 45.5846 12.0013C45.4872 12.0893 45.3741 12.1333 45.2422 12.1333H43.1402C42.9768 12.1333 42.8448 12.0925 42.7411 12.0107C42.6374 11.929 42.5652 11.7938 42.5212 11.6021C42.2855 10.6276 41.8802 9.96427 41.3021 9.60905C40.724 9.25383 40.0107 9.07779 39.1561 9.07779C38.1664 9.07779 37.3777 9.35442 36.787 9.90769C36.1963 10.461 35.879 11.3726 35.835 12.6426C35.791 13.8529 35.791 15.0946 35.835 16.3646C35.879 17.6346 36.1963 18.5462 36.787 19.0995C37.3777 19.6528 38.1664 19.9294 39.1561 19.9294C40.0107 19.9294 40.7271 19.7502 41.3021 19.3856C41.8771 19.024 42.2824 18.3639 42.5212 17.402C42.5652 17.1945 42.6406 17.0562 42.7411 16.9807C42.8448 16.9084 42.9768 16.8707 43.1402 16.8707H45.2422C45.3741 16.8707 45.4904 16.9147 45.5846 17.0027C45.6789 17.0908 45.7198 17.2008 45.7072 17.336C45.6915 18.059 45.5312 18.7317 45.2202 19.351C44.9091 19.9703 44.4755 20.5141 43.9131 20.9793C43.3507 21.4446 42.672 21.8093 41.8771 22.0765C41.079 22.3437 40.1804 22.4757 39.1749 22.4757Z" fill="white"/>
<path d="M51.8372 22.4757C50.6558 22.4757 49.6629 22.2682 48.8586 21.8564C48.0542 21.4446 47.4415 20.8599 47.0205 20.1054C46.5995 19.351 46.3607 18.4739 46.301 17.468C46.2853 17.2008 46.279 16.877 46.279 16.4935C46.279 16.11 46.2853 15.7862 46.301 15.519C46.3607 14.5005 46.6058 13.6171 47.0425 12.8721C47.4792 12.1271 48.0982 11.5455 48.9026 11.1337C49.7069 10.7219 50.6841 10.5144 51.8372 10.5144C52.9903 10.5144 53.9675 10.7219 54.7719 11.1337C55.5762 11.5486 56.1952 12.1271 56.6319 12.8721C57.0687 13.6171 57.3137 14.5005 57.3734 15.519C57.3892 15.7862 57.3954 16.11 57.3954 16.4935C57.3954 16.877 57.3892 17.2008 57.3734 17.468C57.3137 18.4708 57.0749 19.351 56.6539 20.1054C56.2329 20.8599 55.6202 21.4415 54.8158 21.8564C54.0115 22.2682 53.0186 22.4757 51.8372 22.4757ZM51.8372 20.2846C52.6196 20.2846 53.2228 20.0363 53.6533 19.5427C54.0806 19.0492 54.3163 18.3199 54.3602 17.3611C54.376 17.1411 54.3822 16.8518 54.3822 16.4966C54.3822 16.1414 54.376 15.8553 54.3602 15.6321C54.3163 14.6859 54.0806 13.9629 53.6533 13.4631C53.226 12.9601 52.6196 12.7086 51.8372 12.7086C51.0549 12.7086 50.4484 12.9601 50.0211 13.4631C49.5938 13.966 49.3582 14.6891 49.3142 15.6321C49.2985 15.8553 49.2922 16.1414 49.2922 16.4966C49.2922 16.8518 49.2985 17.1379 49.3142 17.3611C49.3582 18.3199 49.5938 19.0492 50.0211 19.5427C50.4484 20.0363 51.0549 20.2846 51.8372 20.2846Z" fill="white"/>
<path d="M59.0544 22.2557C58.9067 22.2557 58.781 22.2054 58.6773 22.1016C58.5737 21.9979 58.5234 21.8722 58.5234 21.7244V11.2689C58.5234 11.1211 58.5737 10.9954 58.6773 10.8917C58.781 10.7879 58.9067 10.7376 59.0544 10.7376H60.8705C61.0181 10.7376 61.1438 10.7911 61.2475 10.8917C61.3512 10.9954 61.4015 11.1211 61.4015 11.2689V12.1774C61.7848 11.7058 62.2749 11.3098 62.8751 10.9923C63.472 10.6748 64.2136 10.5176 65.0996 10.5176C65.9857 10.5176 66.7806 10.7219 67.4467 11.1274C68.1097 11.533 68.6249 12.1051 68.9863 12.8438C69.3476 13.5826 69.5298 14.469 69.5298 15.5033V21.7276C69.5298 21.8753 69.4764 22.001 69.3759 22.1048C69.2722 22.2085 69.1465 22.2588 68.9988 22.2588H67.0508C66.9031 22.2588 66.7774 22.2085 66.6738 22.1048C66.5701 22.001 66.5198 21.8753 66.5198 21.7276V15.6353C66.5198 14.7803 66.3093 14.1075 65.8883 13.6203C65.4672 13.133 64.8577 12.8878 64.0627 12.8878C63.2678 12.8878 62.6834 13.133 62.2247 13.6203C61.7659 14.1075 61.5397 14.7803 61.5397 15.6353V21.7276C61.5397 21.8753 61.4863 22.001 61.3857 22.1048C61.2821 22.2085 61.1564 22.2588 61.0087 22.2588H59.0607L59.0544 22.2557Z" fill="white"/>
<path d="M71.5408 22.2557C71.3931 22.2557 71.2674 22.2054 71.1637 22.1016C71.06 21.9979 71.0098 21.8722 71.0098 21.7244V11.2689C71.0098 11.1211 71.06 10.9954 71.1637 10.8917C71.2674 10.7879 71.3931 10.7376 71.5408 10.7376H73.3568C73.5045 10.7376 73.6302 10.7911 73.7339 10.8917C73.8376 10.9954 73.8879 11.1211 73.8879 11.2689V12.1774C74.2712 11.7058 74.7613 11.3098 75.3615 10.9923C75.9584 10.6748 76.6999 10.5176 77.586 10.5176C78.472 10.5176 79.267 10.7219 79.9331 11.1274C80.596 11.533 81.1113 12.1051 81.4727 12.8438C81.834 13.5826 82.0162 14.469 82.0162 15.5033V21.7276C82.0162 21.8753 81.9628 22.001 81.8623 22.1048C81.7586 22.2085 81.6329 22.2588 81.4852 22.2588H79.5372C79.3895 22.2588 79.2638 22.2085 79.1601 22.1048C79.0565 22.001 79.0062 21.8753 79.0062 21.7276V15.6353C79.0062 14.7803 78.7957 14.1075 78.3746 13.6203C77.9536 13.133 77.3441 12.8878 76.5491 12.8878C75.7542 12.8878 75.1698 13.133 74.7111 13.6203C74.2523 14.1075 74.0261 14.7803 74.0261 15.6353V21.7276C74.0261 21.8753 73.9727 22.001 73.8721 22.1048C73.7685 22.2085 73.6428 22.2588 73.4951 22.2588H71.5471L71.5408 22.2557Z" fill="white"/>
<path d="M88.4542 22.4757C86.8172 22.4757 85.5164 22.0042 84.5581 21.0579C83.5998 20.1117 83.0813 18.7694 83.0091 17.0279C82.9933 16.8801 82.9871 16.6915 82.9871 16.462C82.9871 16.2326 82.9933 16.0534 83.0091 15.9182C83.0688 14.8117 83.3233 13.8497 83.7726 13.0387C84.2219 12.2277 84.8471 11.6021 85.6421 11.1683C86.4401 10.7313 87.3764 10.5144 88.4542 10.5144C89.6481 10.5144 90.6536 10.7627 91.4642 11.2563C92.2748 11.7498 92.8875 12.4383 93.3023 13.3153C93.7139 14.1955 93.9213 15.2078 93.9213 16.3614V16.8267C93.9213 16.9744 93.8678 17.1002 93.7673 17.2039C93.6636 17.3077 93.5317 17.358 93.3683 17.358H86.0191V17.534C86.0348 18.0495 86.1322 18.5274 86.3176 18.9612C86.503 19.3981 86.7763 19.7471 87.1377 20.0143C87.499 20.2815 87.9294 20.4135 88.4322 20.4135C88.8438 20.4135 89.1925 20.3506 89.4722 20.2249C89.7518 20.0992 89.9812 19.9545 90.1571 19.7942C90.3331 19.6308 90.4588 19.4987 90.5342 19.395C90.6661 19.219 90.773 19.1121 90.8547 19.0743C90.9364 19.0366 91.0589 19.0178 91.2191 19.0178H93.1232C93.2709 19.0178 93.3934 19.0618 93.4877 19.1498C93.5819 19.2378 93.6228 19.3478 93.6102 19.483C93.5945 19.7188 93.4719 20.008 93.2457 20.3475C93.0164 20.687 92.6896 21.0202 92.2591 21.344C91.8318 21.6678 91.2977 21.9381 90.6536 22.1519C90.0126 22.3657 89.2774 22.4725 88.451 22.4725L88.4542 22.4757ZM86.0191 15.5001H90.9112V15.4341C90.9112 14.8588 90.8138 14.3558 90.6222 13.9283C90.4305 13.5008 90.1508 13.1613 89.7801 12.9098C89.4125 12.6583 88.9695 12.5326 88.451 12.5326C87.9326 12.5326 87.4927 12.6583 87.1219 12.9098C86.7512 13.1613 86.4747 13.5008 86.2925 13.9283C86.1071 14.3558 86.016 14.8588 86.016 15.4341V15.5001H86.0191Z" fill="white"/>
<path d="M99.9225 22.4757C98.8605 22.4757 97.9273 22.2776 97.123 21.8784C96.3186 21.4792 95.6902 20.9008 95.2409 20.14C94.7916 19.3793 94.5434 18.4614 94.4994 17.3831C94.4837 17.1631 94.4774 16.8707 94.4774 16.5092C94.4774 16.1477 94.4837 15.849 94.4994 15.6133C94.5434 14.535 94.7916 13.6171 95.2409 12.8564C95.6902 12.0956 96.3186 11.5172 97.123 11.118C97.9273 10.7187 98.8605 10.5207 99.9225 10.5207C100.868 10.5207 101.673 10.6527 102.336 10.9199C102.999 11.1871 103.545 11.5172 103.973 11.9164C104.4 12.3157 104.72 12.7338 104.937 13.1676C105.151 13.6045 105.264 13.9975 105.28 14.3527C105.295 14.5162 105.245 14.6451 105.135 14.7394C105.025 14.8368 104.896 14.884 104.749 14.884H102.801C102.653 14.884 102.54 14.8462 102.458 14.7739C102.376 14.7016 102.298 14.5885 102.226 14.4407C102.006 13.8497 101.713 13.4316 101.352 13.1896C100.991 12.9444 100.529 12.8249 99.9697 12.8249C99.2313 12.8249 98.6437 13.0576 98.2101 13.5228C97.7734 13.9881 97.5409 14.7236 97.5126 15.7264C97.4843 16.2891 97.4843 16.8047 97.5126 17.2762C97.5409 18.2947 97.7734 19.0335 98.2101 19.4924C98.6469 19.9514 99.2313 20.1777 99.9697 20.1777C100.545 20.1777 101.01 20.0551 101.365 19.8131C101.72 19.571 102.006 19.1529 102.229 18.5619C102.301 18.4142 102.38 18.3042 102.461 18.2287C102.543 18.1564 102.656 18.1187 102.804 18.1187H104.752C104.899 18.1187 105.028 18.1659 105.138 18.2633C105.248 18.3608 105.295 18.4896 105.283 18.65C105.267 18.9172 105.198 19.2158 105.072 19.5459C104.947 19.8791 104.749 20.2186 104.475 20.5644C104.202 20.9102 103.859 21.2277 103.445 21.5169C103.03 21.8061 102.534 22.0387 101.949 22.2148C101.365 22.3908 100.689 22.482 99.9225 22.482V22.4757Z" fill="white"/>
<path d="M111.457 22.2556C110.571 22.2556 109.826 22.1016 109.22 21.7904C108.613 21.4792 108.164 21.0202 107.869 20.4072C107.573 19.7942 107.426 19.0303 107.426 18.1156V13.089H105.676C105.528 13.089 105.402 13.0387 105.298 12.9349C105.195 12.8312 105.145 12.7055 105.145 12.5577V11.272C105.145 11.1243 105.195 10.9985 105.298 10.8948C105.402 10.791 105.528 10.7407 105.676 10.7407H107.426V7.06276C107.426 6.91501 107.473 6.78927 107.57 6.68553C107.664 6.58179 107.796 6.53149 107.957 6.53149H109.751C109.898 6.53149 110.024 6.58493 110.128 6.68553C110.231 6.78927 110.282 6.91501 110.282 7.06276V10.7407H113.05C113.197 10.7407 113.323 10.7942 113.427 10.8948C113.531 10.9985 113.581 11.1243 113.581 11.272V12.5577C113.581 12.7055 113.527 12.8312 113.427 12.9349C113.326 13.0387 113.197 13.089 113.05 13.089H110.282V17.8955C110.282 18.5022 110.389 18.9737 110.602 19.3133C110.816 19.6528 111.19 19.8225 111.721 19.8225H113.248C113.395 19.8225 113.521 19.876 113.625 19.9765C113.729 20.0803 113.779 20.206 113.779 20.3538V21.7275C113.779 21.8753 113.725 22.001 113.625 22.1047C113.521 22.2085 113.395 22.2588 113.248 22.2588H111.454L111.457 22.2556Z" fill="white"/>
<path d="M115.243 22.2557C115.08 22.2557 114.948 22.2054 114.844 22.1016C114.74 21.9979 114.69 21.8722 114.69 21.7244V7.30486C114.69 7.14139 114.74 7.00936 114.844 6.90562C114.948 6.80188 115.08 6.75159 115.243 6.75159H116.993C117.201 6.75159 117.354 6.80817 117.458 6.9182C117.562 7.02822 117.628 7.1131 117.656 7.17283L121.929 15.1481L126.246 7.17283C126.275 7.1131 126.341 7.02822 126.444 6.9182C126.548 6.80817 126.702 6.75159 126.909 6.75159H128.637C128.801 6.75159 128.933 6.80503 129.036 6.90562C129.14 7.00936 129.19 7.14139 129.19 7.30486V21.7244C129.19 21.8722 129.137 21.9979 129.036 22.1016C128.933 22.2054 128.801 22.2557 128.637 22.2557H126.777C126.614 22.2557 126.485 22.2054 126.391 22.1016C126.294 21.9979 126.246 21.8722 126.246 21.7244V12.1334L123.148 18.0464C123.073 18.1785 122.979 18.2948 122.859 18.3891C122.74 18.4865 122.586 18.5337 122.394 18.5337H121.486C121.279 18.5337 121.122 18.4865 121.012 18.3891C120.902 18.2948 120.808 18.1785 120.735 18.0464L117.637 12.1334V21.7244C117.637 21.8722 117.584 21.9979 117.483 22.1016C117.38 22.2054 117.254 22.2557 117.106 22.2557H115.246H115.243Z" fill="white"/>
<path d="M136.14 22.4757C134.959 22.4757 133.966 22.2682 133.162 21.8564C132.358 21.4446 131.745 20.8599 131.324 20.1054C130.903 19.351 130.664 18.4739 130.604 17.468C130.589 17.2008 130.582 16.877 130.582 16.4935C130.582 16.11 130.589 15.7862 130.604 15.519C130.664 14.5005 130.909 13.6171 131.346 12.8721C131.783 12.1271 132.402 11.5455 133.206 11.1337C134.01 10.7219 134.987 10.5144 136.14 10.5144C137.294 10.5144 138.271 10.7219 139.075 11.1337C139.879 11.5486 140.498 12.1271 140.935 12.8721C141.372 13.6171 141.617 14.5005 141.677 15.519C141.692 15.7862 141.699 16.11 141.699 16.4935C141.699 16.877 141.692 17.2008 141.677 17.468C141.617 18.4708 141.378 19.351 140.957 20.1054C140.536 20.8599 139.923 21.4415 139.119 21.8564C138.315 22.2682 137.322 22.4757 136.14 22.4757ZM136.14 20.2846C136.923 20.2846 137.526 20.0363 137.957 19.5427C138.384 19.0492 138.62 18.3199 138.664 17.3611C138.679 17.1411 138.686 16.8518 138.686 16.4966C138.686 16.1414 138.679 15.8553 138.664 15.6321C138.62 14.6859 138.384 13.9629 137.957 13.4631C137.529 12.9601 136.923 12.7086 136.14 12.7086C135.358 12.7086 134.752 12.9601 134.324 13.4631C133.897 13.966 133.661 14.6891 133.617 15.6321C133.602 15.8553 133.595 16.1414 133.595 16.4966C133.595 16.8518 133.602 17.1379 133.617 17.3611C133.661 18.3199 133.897 19.0492 134.324 19.5427C134.752 20.0363 135.358 20.2846 136.14 20.2846Z" fill="white"/>
<path d="M143.358 22.2557C143.21 22.2557 143.084 22.2054 142.981 22.1016C142.877 21.9979 142.827 21.8721 142.827 21.7244V11.2909C142.827 11.1274 142.877 10.9954 142.981 10.8916C143.084 10.7879 143.21 10.7376 143.358 10.7376H145.152C145.299 10.7376 145.428 10.7911 145.538 10.8916C145.648 10.9954 145.705 11.1274 145.705 11.2909V12.1994C146.044 11.7278 146.484 11.3663 147.021 11.1148C147.559 10.8634 148.184 10.7376 148.891 10.7376H149.799C149.962 10.7376 150.091 10.7911 150.185 10.8916C150.279 10.9954 150.33 11.1211 150.33 11.2689V12.8627C150.33 13.0104 150.283 13.1362 150.185 13.2399C150.088 13.3436 149.959 13.3939 149.799 13.3939H148.071C147.364 13.3939 146.811 13.592 146.421 13.9912C146.028 14.3904 145.834 14.9374 145.834 15.629V21.7212C145.834 21.869 145.78 21.9947 145.68 22.0985C145.576 22.2022 145.444 22.2525 145.281 22.2525H143.355L143.358 22.2557Z" fill="white"/>
<path d="M155.533 22.4757C153.896 22.4757 152.595 22.0042 151.637 21.0579C150.678 20.1117 150.16 18.7694 150.088 17.0279C150.072 16.8801 150.066 16.6915 150.066 16.462C150.066 16.2326 150.072 16.0534 150.088 15.9182C150.147 14.8117 150.402 13.8497 150.851 13.0387C151.301 12.2277 151.926 11.6021 152.721 11.1683C153.519 10.7313 154.455 10.5144 155.533 10.5144C156.727 10.5144 157.732 10.7627 158.543 11.2563C159.354 11.7498 159.966 12.4383 160.381 13.3153C160.793 14.1955 161 15.2078 161 16.3614V16.8267C161 16.9744 160.947 17.1002 160.846 17.2039C160.742 17.3077 160.61 17.358 160.447 17.358H153.098V17.534C153.114 18.0495 153.211 18.5274 153.396 18.9612C153.582 19.3981 153.855 19.7471 154.216 20.0143C154.578 20.2815 155.008 20.4135 155.511 20.4135C155.923 20.4135 156.271 20.3506 156.551 20.2249C156.831 20.0992 157.06 19.9545 157.236 19.7942C157.412 19.6308 157.538 19.4987 157.613 19.395C157.745 19.219 157.852 19.1121 157.933 19.0743C158.015 19.0366 158.138 19.0178 158.298 19.0178H160.202C160.35 19.0178 160.472 19.0618 160.566 19.1498C160.661 19.2378 160.702 19.3478 160.689 19.483C160.673 19.7188 160.551 20.008 160.324 20.3475C160.095 20.687 159.768 21.0202 159.338 21.344C158.911 21.6678 158.376 21.9381 157.732 22.1519C157.091 22.3657 156.356 22.4725 155.53 22.4725L155.533 22.4757ZM153.098 15.5001H157.99V15.4341C157.99 14.8588 157.893 14.3558 157.701 13.9283C157.509 13.5008 157.23 13.1613 156.859 12.9098C156.491 12.6583 156.048 12.5326 155.53 12.5326C155.011 12.5326 154.571 12.6583 154.201 12.9098C153.83 13.1613 153.553 13.5008 153.371 13.9283C153.186 14.3558 153.095 14.8588 153.095 15.4341V15.5001H153.098Z" fill="white"/>
<path d="M2.229 13.1333L0.0154463 3.20305C-0.115816 2.61503 0.632975 2.17464 1.2326 2.48775L23.6426 14.2228C24.3765 14.6071 23.9917 15.5745 23.1355 15.4955L2.93901 13.6907C2.58401 13.6602 2.29463 13.4336 2.229 13.1333Z" fill="#444DF2"/>
<path d="M2.229 16.6721L0.0154463 26.6026C-0.115816 27.1906 0.632975 27.6335 1.2326 27.3204L23.6426 15.5851C24.3765 15.2007 23.9917 14.2334 23.1355 14.3123L2.93901 16.1171C2.58401 16.1477 2.29463 16.3742 2.229 16.6746V16.6721Z" fill="#444DF2"/>
</svg>
